<?xml version="1.0" standalone="no"?>
<!DOCTYPE svg PUBLIC "-//W3C//DTD SVG 20010904//EN"
 "http://www.w3.org/TR/2001/REC-SVG-20010904/DTD/svg10.dtd">
<svg version="1.0" xmlns="http://www.w3.org/2000/svg"
 width="250.000000pt" height="260.000000pt" viewBox="0 0 250.000000 260.000000"
 preserveAspectRatio="xMidYMid meet">

<g transform="translate(0.000000,260.000000) scale(0.100000,-0.100000)"
fill="#000000" stroke="none">
<path d="M1057 2586 c-63 -23 -114 -63 -144 -113 -26 -44 -28 -56 -27 -148 1
-183 43 -341 150 -564 35 -74 64 -135 64 -137 0 -2 -197 -4 -437 -4 -256 0
-453 -4 -473 -10 -20 -5 -56 -23 -82 -39 -132 -84 -137 -313 -8 -424 l39 -33
-24 -49 c-32 -61 -34 -169 -6 -230 18 -41 63 -94 93 -111 15 -8 15 -14 2 -64
-27 -101 1 -195 77 -264 48 -43 49 -45 49 -103 0 -105 57 -189 160 -237 42
-20 66 -21 345 -24 399 -5 470 3 729 78 l206 60 241 0 c271 0 286 3 339 70 89
112 140 339 140 621 0 297 -56 480 -171 556 -33 22 -56 27 -127 32 l-88 6
-148 170 c-82 94 -211 233 -286 310 -193 198 -272 311 -345 493 -44 109 -78
145 -155 161 -63 13 -66 13 -113 -3z"/>
</g>
</svg>
